<svg width="48" height="48" viewBox="0 0 48 48" fill="none" xmlns="http://www.w3.org/2000/svg">
<path d="M39 3H9C8.17031 3 7.5 3.67031 7.5 4.5V15H40.5V4.5C40.5 3.67031 39.8297 3 39 3ZM13.5 10.875C12.4641 10.875 11.625 10.0359 11.625 9C11.625 7.96406 12.4641 7.125 13.5 7.125C14.5359 7.125 15.375 7.96406 15.375 9C15.375 10.0359 14.5359 10.875 13.5 10.875ZM7.5 43.5C7.5 44.3297 8.17031 45 9 45H39C39.8297 45 40.5 44.3297 40.5 43.5V33H7.5V43.5ZM13.5 37.125C14.5359 37.125 15.375 37.9641 15.375 39C15.375 40.0359 14.5359 40.875 13.5 40.875C12.4641 40.875 11.625 40.0359 11.625 39C11.625 37.9641 12.4641 37.125 13.5 37.125ZM7.5 30H40.5V18H7.5V30ZM13.5 22.125C14.5359 22.125 15.375 22.9641 15.375 24C15.375 25.0359 14.5359 25.875 13.5 25.875C12.4641 25.875 11.625 25.0359 11.625 24C11.625 22.9641 12.4641 22.125 13.5 22.125Z" fill="black"/>
</svg>
