<svg width="110" height="110" viewBox="0 0 110 110" fill="none" xmlns="http://www.w3.org/2000/svg">
<g clip-path="url(#clip0_56_577)">
<path d="M100.251 59.0972C99.9607 62.9498 95.7665 65.9349 94.549 69.4161C93.2887 73.0183 94.6741 77.9603 92.5691 81.0388C90.4336 84.161 85.3096 84.6602 82.4601 87.1097C79.6104 89.5597 78.3484 94.5513 74.9408 96.1938C71.5815 97.8135 66.903 95.7028 63.1531 96.4084C59.5289 97.0897 55.9485 100.789 52.0959 100.498C48.2432 100.208 45.2588 96.0137 41.7771 94.7959C38.1747 93.5361 33.2324 94.921 30.1544 92.8161C27.0315 90.6808 26.5325 85.5564 24.0825 82.7067C21.6326 79.8571 16.6413 78.5957 14.9988 75.1881C13.3791 71.8288 15.4898 67.1503 14.7848 63.4001C14.1032 59.7752 10.4044 56.1954 10.6949 52.3429C10.9855 48.4904 15.1791 45.5055 16.3968 42.0239C17.6565 38.422 16.2716 33.4797 18.3767 30.4012C20.5123 27.2785 25.6362 26.7797 28.4858 24.3298C31.3353 21.8803 32.5973 16.8887 36.0049 15.2462C39.3641 13.6269 44.0427 15.7372 47.7931 15.0317C51.4179 14.3501 54.9977 10.6513 58.8503 10.9419C62.7028 11.2325 65.6875 15.4265 69.1691 16.6442C72.7711 17.9039 77.7133 16.519 80.7918 18.6241C83.9145 20.7597 84.4133 25.8836 86.8632 28.7332C89.3127 31.5827 94.3043 32.8447 95.9468 36.2523C97.5667 39.6112 95.456 44.2897 96.1608 48.0403C96.843 51.6649 100.542 55.2447 100.251 59.0972Z" fill="#0077B6"/>
<path d="M35.5342 54.3567H27.9194V49.3705H36.4962V46.1593H23.9494V65.4265H27.9194V57.5543H35.5342V54.3567ZM49.5443 65.4265H53.7988V65.2368L49.6391 57.3646C50.7908 56.8498 51.6444 56.1452 52.2135 55.2645C52.7826 54.3973 53.0671 53.2998 53.0671 51.9855C53.0671 50.1292 52.4574 48.693 51.2244 47.6768C49.9914 46.6741 48.23 46.1593 45.9537 46.1593H38.7996V65.4265H42.7696V58.3673H45.9266L49.5443 65.4265ZM42.7696 49.3705H45.9537C47.0241 49.3705 47.8099 49.6415 48.3248 50.1563C48.8397 50.6712 49.1107 51.3893 49.1107 52.2971C49.1107 53.1914 48.8262 53.896 48.2842 54.3973C47.7422 54.8986 46.9699 55.1561 45.9672 55.1561H42.7696V49.3705ZM67.6869 53.9637H60.0586V49.3705H68.9741V46.1593H56.0886V65.4265H69.0012V62.2424H60.0586V57.0801H67.6869V53.9637ZM82.9301 53.9637H75.3017V49.3705H84.2172V46.1593H71.3317V65.4265H84.2443V62.2424H75.3017V57.0801H82.9301V53.9637Z" fill="white"/>
</g>
<defs>
<clipPath id="clip0_56_577">
<rect width="110" height="110" fill="white"/>
</clipPath>
</defs>
</svg>
