<svg width="74" height="74" viewBox="0 0 74 74" fill="none" xmlns="http://www.w3.org/2000/svg">
<path d="M37 6.16669C54.0293 6.16669 67.8334 19.9708 67.8334 37C67.8334 54.0293 54.0293 67.8334 37 67.8334C32.0119 67.8399 27.0972 66.6314 22.681 64.3122L9.45352 67.7563C9.01154 67.8714 8.54715 67.869 8.10638 67.7493C7.66561 67.6297 7.26376 67.3969 6.94065 67.0741C6.61754 66.7514 6.3844 66.3497 6.26432 65.9091C6.14425 65.4684 6.14142 65.004 6.2561 64.5619L9.6971 51.3375C7.37165 46.9166 6.15981 41.9952 6.16669 37C6.16669 19.9708 19.9708 6.16669 37 6.16669ZM37 47.7917C36.1823 47.7917 35.398 48.1165 34.8198 48.6948C34.2415 49.273 33.9167 50.0573 33.9167 50.875C33.9167 51.6928 34.2415 52.477 34.8198 53.0553C35.398 53.6335 36.1823 53.9584 37 53.9584C37.8178 53.9584 38.602 53.6335 39.1803 53.0553C39.7585 52.477 40.0834 51.6928 40.0834 50.875C40.0834 50.0573 39.7585 49.273 39.1803 48.6948C38.602 48.1165 37.8178 47.7917 37 47.7917ZM37 20.8125C34.7512 20.8125 32.5945 21.7059 31.0043 23.296C29.4142 24.8862 28.5209 27.0429 28.5209 29.2917C28.521 29.8776 28.7436 30.4416 29.1436 30.8697C29.5436 31.2978 30.0912 31.5582 30.6757 31.5981C31.2603 31.638 31.8382 31.4546 32.2927 31.0849C32.7472 30.7151 33.0444 30.1866 33.1243 29.6062L33.1674 28.897C33.2716 27.9167 33.7474 27.0136 34.497 26.3734C35.2467 25.7331 36.2131 25.4045 37.1977 25.455C38.1822 25.5056 39.1099 25.9315 39.7901 26.6451C40.4702 27.3587 40.851 28.3059 40.8542 29.2917C40.8542 30.9536 40.4379 31.7738 38.8654 33.3987L37.9281 34.3545C35.6033 36.7719 34.6875 38.5078 34.6875 41.625C34.6875 42.2383 34.9312 42.8265 35.3648 43.2602C35.7985 43.6939 36.3867 43.9375 37 43.9375C37.6133 43.9375 38.2015 43.6939 38.6352 43.2602C39.0689 42.8265 39.3125 42.2383 39.3125 41.625C39.3125 39.9631 39.7288 39.1429 41.3013 37.518L42.2386 36.5622C44.5634 34.1449 45.4792 32.4089 45.4792 29.2917C45.4792 27.0429 44.5858 24.8862 42.9957 23.296C41.4055 21.7059 39.2488 20.8125 37 20.8125Z" fill="#00B4D8"/>
</svg>
