<svg width="35" height="49" viewBox="0 0 35 49" fill="none" xmlns="http://www.w3.org/2000/svg">
<path d="M34.9391 9.60535L31.7616 44.9451L17.4786 48.8762L3.23499 44.9505L0.060791 9.60535H34.9391Z" fill="#E44D26"/>
<path d="M17.5 45.8713L29.0414 42.6947L31.7566 12.4952H17.5V45.8713Z" fill="#F16529"/>
<path d="M11.3232 21.1653H17.5001V16.8303H6.55127L6.65572 17.9933L7.72896 29.9393H17.5001V25.6043H11.7222L11.3232 21.1653V21.1653Z" fill="#EBEBEB"/>
<path d="M12.307 32.1068H7.92383L8.53551 38.9133L17.4798 41.3783L17.4999 41.3728V36.8627L17.4807 36.8677L12.6179 35.5641L12.307 32.1068V32.1068Z" fill="#EBEBEB"/>
<path d="M3.30591 0H5.52485V2.17649H7.55472V0H9.7738V6.59097H7.55485V4.38394H5.52499V6.59097H3.30604V0H3.30591Z" fill="black"/>
<path d="M12.6917 2.18572H10.7385V0H16.8654V2.18572H14.911V6.59097H12.6921V2.18572H12.692H12.6917Z" fill="black"/>
<path d="M17.8376 0H20.1513L21.5746 2.31589L22.9965 0H25.3111V6.59097H23.1012V3.32413L21.5746 5.66757H21.5363L20.0087 3.32413V6.59097H17.8376V0Z" fill="black"/>
<path d="M26.4154 0H28.6351V4.41244H31.7555V6.59097H26.4153V0H26.4154Z" fill="black"/>
<path d="M17.485 29.9393H22.8617L22.3548 35.5614L17.4849 36.8664V41.3763L26.4362 38.9134L26.5019 38.1809L27.5281 26.7684L27.6346 25.6044H17.485V29.9393Z" fill="white"/>
<path d="M17.4849 21.1547V21.1653H28.0318L28.1193 20.191L28.3183 17.9933L28.4226 16.8303H17.4849V21.1548V21.1547Z" fill="white"/>
</svg>
