<svg width="44" height="44" viewBox="0 0 44 44" fill="none" xmlns="http://www.w3.org/2000/svg">
<path d="M0 0H44V44H0V0Z" fill="#F7DF1E"/>
<path d="M11.5693 36.7696L14.9363 34.7318C15.586 35.8836 16.1769 36.8581 17.5943 36.8581C18.953 36.8581 19.8098 36.3267 19.8098 34.2593V20.2003H23.9446V34.3178C23.9446 38.6004 21.4342 40.5498 17.7715 40.5498C14.4638 40.5498 12.5438 38.8367 11.5691 36.7692" fill="black"/>
<path d="M26.1906 36.3265L29.5573 34.3772C30.4436 35.8246 31.5956 36.8878 33.6333 36.8878C35.3467 36.8878 36.4392 36.0312 36.4392 34.8497C36.4392 33.4321 35.3168 32.9299 33.4265 32.1032L32.3931 31.6597C29.4098 30.3901 27.431 28.7951 27.431 25.4281C27.431 22.3267 29.7938 19.9638 33.4858 19.9638C36.1145 19.9638 38.0048 20.8796 39.3633 23.2719L36.1437 25.3395C35.4347 24.0696 34.6671 23.5675 33.4857 23.5675C32.2746 23.5675 31.5067 24.3354 31.5067 25.3395C31.5067 26.58 32.2746 27.0824 34.0467 27.8503L35.0803 28.2932C38.5952 29.7997 40.574 31.3354 40.574 34.7908C40.574 38.5126 37.65 40.5503 33.7218 40.5503C29.8823 40.5503 27.4013 38.7191 26.1904 36.3266" fill="black"/>
</svg>
