<svg width="88" height="21" viewBox="0 0 88 21" fill="none" xmlns="http://www.w3.org/2000/svg">
<path d="M47.0191 6.80062C47.7744 6.84378 48.3947 7.13507 48.8802 7.67451C49.3657 8.20315 49.7163 8.80732 49.9321 9.48701C50.1479 10.1667 50.2558 10.8626 50.2558 11.5746C50.2558 12.2867 50.1479 12.9825 49.9321 13.6622C49.7271 14.3419 49.3765 14.9515 48.8802 15.4909C48.3947 16.0196 47.7744 16.3055 47.0191 16.3486H41.0638C40.7725 16.3378 40.5244 16.2353 40.3194 16.0411C40.1252 15.8362 40.0227 15.588 40.0119 15.2967V11.2833C40.0227 10.9812 40.136 10.7331 40.3517 10.5389C40.5675 10.3339 40.8264 10.2314 41.1285 10.2314C41.4198 10.2422 41.668 10.3501 41.8729 10.5551C42.0779 10.7493 42.1858 10.992 42.1966 11.2833V13.7431C42.1966 14.0344 42.3476 14.1801 42.6497 14.1801H46.4689C46.8789 14.1585 47.2187 14.0021 47.4885 13.7108C47.7582 13.4195 47.9524 13.0904 48.071 12.7236C48.2005 12.346 48.2652 11.963 48.2652 11.5746C48.2652 11.1862 48.2005 10.8086 48.071 10.4418C47.9524 10.0642 47.7582 9.72975 47.4885 9.43846C47.2187 9.14716 46.8789 8.99073 46.4689 8.96915H41.0638C40.4165 8.91521 40.0658 8.56457 40.0119 7.91725C40.0119 7.61517 40.109 7.35624 40.3032 7.14047C40.5082 6.92469 40.7617 6.81141 41.0638 6.80062H47.0191ZM55.3372 16.3486C54.3878 16.3162 53.6704 16.0951 53.1849 15.6851C52.6994 15.2644 52.3488 14.795 52.133 14.2772C51.9172 13.7485 51.8093 13.2145 51.8093 12.6751C51.8093 12.1141 51.9118 11.5746 52.1168 11.0568C52.3326 10.5281 52.6832 10.0588 53.1687 9.64884C53.665 9.22808 54.2907 9.0123 55.0459 9.00152H61.1955C61.4976 9.00152 61.7511 9.10401 61.9561 9.30899C62.1719 9.50319 62.2798 9.74054 62.2798 10.021C62.2798 10.3123 62.1719 10.5605 61.9561 10.7655C61.7511 10.9597 61.4976 11.0568 61.1955 11.0568H55.143C54.9057 11.0568 54.6953 11.1377 54.5119 11.2995C54.3393 11.4613 54.2098 11.6717 54.1235 11.9306C54.048 12.1896 54.0102 12.4431 54.0102 12.6912C54.0102 12.961 54.048 13.2253 54.1235 13.4842C54.2098 13.7431 54.3393 13.9535 54.5119 14.1154C54.6953 14.2664 54.9057 14.3473 55.143 14.3581H61.1955C61.4976 14.3581 61.7511 14.4552 61.9561 14.6494C62.1719 14.8436 62.2798 15.0755 62.2798 15.3453C62.2798 15.6258 62.1719 15.8631 61.9561 16.0573C61.7511 16.2515 61.4976 16.3486 61.1955 16.3486H55.3372ZM62.0856 12.6427C62.0856 12.8477 61.9939 13.0257 61.8104 13.1767C61.6486 13.317 61.4436 13.3871 61.1955 13.3871H55.9036C55.6555 13.3871 55.4451 13.317 55.2725 13.1767C55.0999 13.0257 55.0136 12.8477 55.0136 12.6427C55.0136 12.4485 55.0999 12.2759 55.2725 12.1248C55.4451 11.9846 55.6555 11.9145 55.9036 11.9145H61.1955C61.4436 11.9145 61.654 11.99 61.8266 12.141C61.9992 12.2813 62.0856 12.4485 62.0856 12.6427ZM66.6977 15.4909C66.1475 14.7465 65.5973 13.7701 65.0471 12.5618L63.9952 10.2962C63.9412 10.1775 63.9088 10.048 63.8981 9.90777C63.8765 9.60568 63.9682 9.34675 64.1732 9.13098C64.3782 8.91521 64.6479 8.80732 64.9823 8.80732C65.3491 8.80732 65.6189 8.88284 65.7915 9.03388C65.9749 9.17413 66.1205 9.35754 66.2284 9.5841L66.989 11.4613C67.1832 11.9037 67.372 12.3244 67.5554 12.7236C67.7496 13.112 67.9654 13.468 68.2027 13.7917C68.4509 14.1154 68.726 14.288 69.0281 14.3096C69.3194 14.288 69.5945 14.1154 69.8534 13.7917C70.08 13.468 70.285 13.112 70.4684 12.7236C70.6626 12.3244 70.8568 11.9037 71.051 11.4613L71.8116 9.5841C71.9195 9.35754 72.0597 9.17413 72.2323 9.03388C72.4157 8.88284 72.6908 8.80732 73.0577 8.80732C73.3921 8.80732 73.6618 8.91521 73.8668 9.13098C74.0718 9.34675 74.1635 9.60568 74.1419 9.90777C74.1311 10.048 74.0988 10.1775 74.0448 10.2962L72.9929 12.5618C72.4427 13.7701 71.8925 14.7465 71.3423 15.4909C70.8136 16.2245 70.0422 16.5968 69.0281 16.6075C68.0032 16.5968 67.2264 16.2245 66.6977 15.4909ZM81.1006 16.7208C80.5396 16.7208 79.984 16.6561 79.4338 16.5266C78.8943 16.3972 78.3765 16.2084 77.8802 15.9602C77.3839 15.7013 76.947 15.3614 76.5694 14.9407C76.1918 14.5199 75.9868 14.0183 75.9544 13.4357V12.756V7.59359C75.9544 7.29151 76.0623 7.04337 76.2781 6.84917C76.5046 6.64419 76.769 6.54169 77.0711 6.54169C77.7184 6.59564 78.069 6.94627 78.123 7.59359V12.934C78.1445 13.2684 78.2686 13.5489 78.4952 13.7755C78.7325 13.9913 78.9914 14.1639 79.2719 14.2934C79.5632 14.4228 79.8599 14.5199 80.162 14.5847C80.4749 14.6494 80.7878 14.6818 81.1006 14.6818C81.4135 14.6818 81.721 14.6494 82.0231 14.5847C82.3359 14.5199 82.6326 14.4228 82.9131 14.2934C83.2044 14.1639 83.4634 13.9913 83.6899 13.7755C83.9273 13.5489 84.0567 13.2684 84.0783 12.934V7.59359C84.0783 7.29151 84.1862 7.04337 84.402 6.84917C84.6285 6.64419 84.8929 6.54169 85.1949 6.54169C85.8423 6.59564 86.1983 6.94627 86.263 7.59359V12.756V13.4357C86.2307 14.0183 86.0203 14.5199 85.6319 14.9407C85.2543 15.3614 84.8173 15.7013 84.3211 15.9602C83.8248 16.2084 83.3015 16.3972 82.7513 16.5266C82.2119 16.6561 81.6616 16.7208 81.1006 16.7208Z" fill="white"/>
<path d="M1 18.1118H37.5952" stroke="white" stroke-width="1.05633" stroke-linecap="round"/>
<path d="M4.97376 15.0355L6.22349 17.2466L32.2756 17.3427L33.6215 15.2278L4.97376 15.0355Z" stroke="white" stroke-width="0.961334" stroke-linecap="round" stroke-linejoin="round"/>
<path d="M31.2182 14.9207V1H7.85775V11.8473" stroke="white" stroke-width="0.932197" stroke-linecap="round" stroke-linejoin="round"/>
<path d="M35.448 20.1306H30.8336" stroke="white" stroke-width="0.961334" stroke-linecap="round"/>
<path d="M28.557 3.18611V12.7559C28.557 13.001 28.3998 13.1999 28.2062 13.1999H23.0858C22.8923 13.1999 22.7351 13.001 22.7351 12.7559V3.18611C22.7351 2.94104 22.8923 2.74207 23.0858 2.74207H28.2062C28.3998 2.74207 28.557 2.94104 28.557 3.18611Z" fill="white"/>
<path d="M11.2458 3.60461H19.763" stroke="white" stroke-width="0.650673" stroke-linecap="round"/>
<path d="M11.2458 6.39252H19.763" stroke="white" stroke-width="0.650673" stroke-linecap="round"/>
<path d="M11.2458 9.27649H19.763" stroke="white" stroke-width="0.650673" stroke-linecap="round"/>
<path d="M11.2458 12.1605H19.763" stroke="white" stroke-width="0.650673" stroke-linecap="round"/>
</svg>
