<svg width="38" height="38" viewBox="0 0 38 38" fill="none" xmlns="http://www.w3.org/2000/svg">
<path d="M19 38C13.9609 38 9.12816 35.9982 5.56497 32.435C2.00178 28.8718 -1.05078e-06 24.0391 -8.30517e-07 19C-6.1025e-07 13.9609 2.00178 9.12816 5.56497 5.56497C9.12816 2.00178 13.9609 -1.05078e-06 19 -8.30516e-07C24.0391 -6.1025e-07 28.8718 2.00178 32.435 5.56497C35.9982 9.12816 38 13.9609 38 19C38 24.0391 35.9982 28.8718 32.435 32.435C28.8718 35.9982 24.0391 38 19 38ZM27.3125 20.1875C27.6274 20.1875 27.9295 20.0624 28.1522 19.8397C28.3749 19.617 28.5 19.3149 28.5 19C28.5 18.6851 28.3749 18.383 28.1522 18.1603C27.9295 17.9376 27.6274 17.8125 27.3125 17.8125L13.5541 17.8125L18.6532 12.7158C18.8762 12.4928 19.0015 12.1903 19.0015 11.875C19.0015 11.5597 18.8762 11.2572 18.6532 11.0343C18.4303 10.8113 18.1278 10.686 17.8125 10.686C17.4972 10.686 17.1947 10.8113 16.9717 11.0343L9.84675 18.1593C9.73616 18.2696 9.64842 18.4006 9.58856 18.5449C9.52869 18.6891 9.49788 18.8438 9.49788 19C9.49788 19.1562 9.52869 19.3109 9.58856 19.4551C9.64842 19.5994 9.73616 19.7304 9.84675 19.8408L16.9717 26.9658C17.1947 27.1887 17.4972 27.314 17.8125 27.314C18.1278 27.314 18.4303 27.1887 18.6532 26.9658C18.8762 26.7428 19.0015 26.4403 19.0015 26.125C19.0015 25.8097 18.8762 25.5072 18.6532 25.2843L13.5541 20.1875L27.3125 20.1875Z" fill="#023E8A"/>
</svg>
