<svg width="133" height="84" viewBox="0 0 133 84" fill="none" xmlns="http://www.w3.org/2000/svg">
<path d="M65.3097 43.5091C62.6104 43.8859 59.9182 42.1599 57.2995 42.4311C56.3165 43.6238 54.3237 46.3894 52.6332 50.942C51.7808 53.2386 51.6075 56.4688 51.6699 59.7614C52.0308 61.5407 52.2607 63.344 52.3462 65.1578C52.4345 67.2116 53.1626 69.4012 53.1914 71.5894C53.2192 73.8376 52.039 75.913 52.7383 76.5513C54.9519 78.5773 77.8835 77.2286 80.2695 76.5513C81.1809 76.2917 79.4929 74.2772 79.2879 70.9606C79.1703 69.0292 79.1636 67.0925 79.2683 65.1602C79.3916 63.0041 79.6388 60.8567 80.0089 58.7286C80.0362 58.7257 80.065 58.7223 80.0924 58.719C78.2814 52.5888 74.6936 46.2263 72.3653 42.4734C70.3273 42.8573 67.4557 43.5173 65.3097 43.5091Z" fill="#D0021B"/>
<path d="M91.7283 65.6555L85.6701 52.1712L80.352 58.7909L85.4877 68.3563C86.1486 69.8624 87.9025 70.5507 89.412 69.897L90.1828 69.561C91.6865 68.9135 92.3806 67.1693 91.7336 65.6656L91.7293 65.6555H91.7283Z" fill="#DBAF8F"/>
<path d="M85.6351 66.5761C85.648 66.5358 85.6624 66.4954 85.6768 66.4546L92.1819 49.4382C92.1944 49.4065 92.2107 49.3797 92.2241 49.3475L92.4391 48.8579V48.8469C93.4951 49.9868 95.2859 50.3598 96.7627 50.4534L91.9496 67.5879C91.4058 69.4905 89.4259 70.5944 87.5223 70.0568C87.4854 70.0463 87.4489 70.0357 87.4138 70.0247C85.9715 69.5658 85.1743 68.0256 85.6322 66.5833L85.6351 66.5761Z" fill="#F1C5A3"/>
<path d="M93.1908 49.4589C94.2818 50.0771 95.5081 50.4188 96.7618 50.4548L96.1143 52.7591C94.6715 52.1851 93.5868 50.9602 93.1908 49.4589Z" fill="#C19283"/>
<path d="M93.596 46.4282C94.1906 47.6782 95.5784 48.1532 96.6958 47.4881C96.9407 47.3424 97.1597 47.1482 97.3423 46.9154L98.6027 45.3033C98.8712 44.9992 98.9132 44.5263 98.7032 44.1689C98.4654 43.7651 97.9874 43.6379 97.6127 43.8801L95.7568 45.0705L93.5965 46.4292L93.596 46.4282Z" fill="#F1C5A3"/>
<path d="M92.3823 49.1768C92.2955 48.2419 92.588 47.3118 93.1788 46.643C93.2057 46.6208 93.234 46.6008 93.2628 46.5828L93.2524 46.5485C94.426 45.6337 96.8973 45.8343 98.548 46.1014C99.5611 46.2666 100.566 45.7472 101.11 44.7775C101.518 44.0559 102.371 43.84 103.017 44.2961C103.463 44.6118 103.71 45.185 103.653 45.7726C103.628 46.0212 103.549 46.2598 103.423 46.4656L101.427 49.73C101.126 50.2209 100.619 50.5007 100.088 50.469L96.9181 51.0243L96.9101 51.0581C95.3618 50.9478 93.4879 50.5112 92.3823 49.1768Z" fill="#F1C5A3"/>
<g opacity="0.3">
<path opacity="0.3" d="M100.999 46.4773C100.881 47.7389 98.5947 48.7682 97.6108 48.3443" stroke="#916162" stroke-width="1.03984" stroke-miterlimit="10" stroke-linecap="round"/>
</g>
<path d="M40.6987 65.656L46.7564 52.1721L52.0745 58.7919L46.9388 68.3563C46.2779 69.8625 44.5241 70.5512 43.0146 69.8975L42.2437 69.5615C40.74 68.914 40.0455 67.1698 40.6929 65.6661L40.6977 65.656H40.6987Z" fill="#DBAF8F"/>
<path d="M46.7919 66.5761C46.779 66.5358 46.7651 66.4954 46.7502 66.4546L40.2456 49.4382C40.2327 49.4065 40.2159 49.3797 40.2029 49.3475L39.9879 48.8579V48.8469C38.9319 49.9868 37.1407 50.3598 35.6643 50.4534L40.477 67.5879C41.0208 69.4905 43.0006 70.5944 44.9047 70.0568C44.9412 70.0463 44.9781 70.0357 45.0132 70.0247C46.455 69.5658 47.2527 68.0256 46.7948 66.5833L46.7919 66.5761Z" fill="#F1C5A3"/>
<path d="M39.2357 49.4589C38.1448 50.0771 36.9184 50.4188 35.6648 50.4548L36.3122 52.7591C37.755 52.1851 38.8398 50.9602 39.2357 49.4589Z" fill="#C19283"/>
<path d="M38.7639 46.4379C38.1592 47.5745 36.7476 48.006 35.611 47.4012C35.3619 47.2688 35.1392 47.0926 34.9534 46.8809L33.6714 45.4146C33.3983 45.1382 33.3556 44.7081 33.5692 44.3832C33.8111 44.016 34.2973 43.9008 34.6784 44.1211L36.5661 45.2034L38.7635 46.4384L38.7639 46.4379Z" fill="#F1C5A3"/>
<path d="M39.9984 48.9367C40.0867 48.0866 39.7896 47.2409 39.1882 46.6328C39.1609 46.6126 39.1326 46.5944 39.1028 46.5781L39.1138 46.5469C37.9197 45.7151 35.4056 45.8975 33.7266 46.1403C32.6966 46.2906 31.6748 45.8183 31.1209 44.9366C30.7067 44.2804 29.8389 44.0841 29.1823 44.4988C28.7277 44.7859 28.4762 45.3071 28.5348 45.8413C28.5597 46.0674 28.6409 46.2843 28.7695 46.4715L30.7993 49.4397C31.1055 49.886 31.6205 50.1404 32.1605 50.1116L35.3854 50.6166L35.3941 50.6473C36.9674 50.5474 38.8743 50.15 39.9984 48.9367Z" fill="#F1C5A3"/>
<g opacity="0.3">
<path opacity="0.3" d="M31.2341 46.4821C31.3546 47.6292 33.6791 48.5651 34.6799 48.1797" stroke="#916162" stroke-miterlimit="10" stroke-linecap="round"/>
</g>
<path d="M57.4655 42.411C57.0907 42.4383 56.7168 42.5031 56.3448 42.6207C54.3717 43.2375 52.039 43.4784 50.206 44.985V44.9745C50.206 44.9745 50.0788 45.0767 49.8465 45.2836C49.5067 45.5759 49.1702 45.8783 48.8385 46.2018V46.2229C47.7116 47.3268 45.5061 50.9228 45.8109 53.9384C45.9827 55.6577 48.5563 58.9354 51.6056 59.4269C51.6089 59.4418 51.6113 59.4576 51.6142 59.4725C53.2696 57.3846 54.7019 55.123 55.6335 52.7591C57.0797 49.0869 57.7435 45.3162 57.4655 42.411Z" fill="#D0021B"/>
<path d="M80.076 58.7209C81.8356 58.5322 84.4231 58.0734 85.3408 57.4019C88.7894 54.8888 85.397 48.5594 82.6938 44.9745C80.4922 43.3642 77.0628 43.1146 74.5218 42.2132C74.0927 42.1734 73.3113 42.2948 72.3475 42.4762C72.5832 44.8137 73.2739 48.2412 75.1395 52.3425C76.1316 54.5235 77.8571 56.5524 80.076 58.7209Z" fill="#D0021B"/>
<g opacity="0.35">
<path opacity="0.35" d="M82.1831 45.1602C82.1831 45.1602 79.9772 46.9721 80.3237 50.606" stroke="black" stroke-linecap="round"/>
</g>
<g opacity="0.35">
<path opacity="0.35" d="M50.6231 45.9824C50.6231 45.9824 51.5307 48.2297 51.1832 50.0881" stroke="black" stroke-linecap="round"/>
</g>
<path d="M65.279 40.6C65.279 40.6 61.4042 40.3903 56.3487 42.6202C56.3487 42.6202 56.2426 46.9712 64.9718 46.9712C73.7006 46.9712 74.4805 42.2031 74.4805 42.2031C74.4805 42.2031 68.9369 40.2314 65.279 40.6Z" fill="#F1C5A3"/>
<path d="M69.2637 44.0712L69.2349 44.0798C68.5116 44.2416 67.7763 44.3476 67.0362 44.3976H67.0275C64.8202 44.4398 62.6492 43.8293 60.7879 42.6428L60.8762 38.0951L60.9732 33.2147L62.0954 33.556L69.0698 35.6837L69.2037 41.3613L69.2637 44.0712Z" fill="#F1C5A3"/>
<g opacity="0.45">
<path opacity="0.45" d="M65.0112 40.5727C67.0271 40.5727 68.7122 39.3732 69.1231 37.7735L69.0837 36.1262C69.0689 36.0753 69.0554 36.024 69.0357 35.9731L62.6948 34.0359C61.8578 34.4785 61.2252 35.2291 60.9314 36.1296L60.8993 37.7812C61.3154 39.3785 62.9953 40.5727 65.0112 40.5727Z" fill="#20181B"/>
</g>
<path d="M57.1723 31.4177C55.4151 32.7184 52.3659 26.8052 54.0827 25.4036C55.7996 24.0021 56.8776 26.5959 56.8776 26.5959L56.9736 28.7418L57.2308 30.7808L57.3268 31.4071L57.1723 31.4177Z" fill="#F1C5A3"/>
<path d="M54.5593 27.1891C54.5593 27.1891 55.8336 26.7644 56.7413 28.6401" stroke="#FFA184" stroke-width="0.674" stroke-linecap="round" stroke-linejoin="round"/>
<path d="M56.124 27.7224C56.124 27.7224 54.7355 28.4635 55.6522 29.578" stroke="#FFA184" stroke-width="0.674" stroke-linecap="round" stroke-linejoin="round"/>
<path d="M65.0265 9.99945C67.7249 9.99945 69.9117 12.1795 69.9117 14.8692C69.9117 17.5585 67.7249 19.739 65.0265 19.739C62.3286 19.739 60.1414 17.5585 60.1414 14.8692C60.1414 12.1795 62.3286 9.99945 65.0265 9.99945Z" fill="#20181B"/>
<g opacity="0.25">
<path opacity="0.25" d="M64.8753 14.683C67.4557 14.683 69.5474 16.1104 69.5474 17.871C69.5474 19.6315 67.4557 21.0589 64.8753 21.0589C62.295 21.0589 60.2033 19.6315 60.2033 17.871C60.2033 16.1104 62.295 14.683 64.8753 14.683Z" fill="white"/>
</g>
<path d="M69.0796 35.9885L69.0367 35.9745C69.055 36.0261 69.0685 36.0786 69.0854 36.1297L69.0796 35.9885Z" fill="#20181B"/>
<path d="M72.5621 31.386C74.3245 32.6872 77.3685 26.7749 75.6517 25.3753C73.9343 23.9757 72.8021 26.5412 72.8021 26.5412L72.7594 28.7126L72.5031 30.7515L72.4047 31.3783L72.5621 31.386Z" fill="#F1C5A3"/>
<path d="M75.1751 27.157C75.1751 27.157 73.9003 26.7322 72.9926 28.6079" stroke="#FFA184" stroke-width="0.674" stroke-linecap="round" stroke-linejoin="round"/>
<path d="M73.6137 27.6902C73.6137 27.6902 75.0027 28.4323 74.0855 29.5468" stroke="#FFA184" stroke-width="0.674" stroke-linecap="round" stroke-linejoin="round"/>
<path d="M73.235 28.967C73.2662 31.4758 72.4714 33.9251 70.9734 35.9371C69.5416 37.8037 67.3011 38.8697 64.9493 38.8035C62.2984 38.8448 59.8212 37.4874 58.4293 35.2311C57.2553 33.3534 56.6419 31.1796 56.6616 28.965C56.6616 23.3575 56.6616 18.8117 64.9497 18.8117C73.2379 18.8117 73.235 23.359 73.235 28.967Z" fill="#F1C5A3"/>
<path d="M61.2285 31.5722C61.2818 32.2797 60.7514 32.897 60.044 32.9502C59.3365 33.0035 58.7192 32.4736 58.666 31.7662C58.6127 31.0587 59.1431 30.4409 59.8505 30.3877H59.8553C59.8865 30.3877 59.9172 30.3843 59.9508 30.3843C60.631 30.3613 61.2021 30.8921 61.2285 31.5722Z" fill="#FFA184"/>
<path d="M70.4891 31.5718C70.5424 32.2792 70.012 32.896 69.3045 32.9498C68.597 33.003 67.9798 32.4727 67.9265 31.7652C67.8733 31.0577 68.4031 30.4405 69.1111 30.3872H69.1149C69.1466 30.3872 69.1769 30.3834 69.2109 30.3834C69.892 30.3584 70.4646 30.8902 70.4905 31.5713L70.4891 31.5718Z" fill="#FFA184"/>
<path d="M64.5202 29.4489L64.2115 31.8765C64.2111 32.2567 64.5192 32.5653 64.8998 32.5658C64.9699 32.5658 65.04 32.5547 65.1072 32.5336L65.8334 32.3421" stroke="#EA8A70" stroke-miterlimit="10" stroke-linecap="round"/>
<path d="M73.3104 21.4813C73.3104 21.4813 72.4085 15.365 64.7947 15.7346C58.0718 16.0596 56.281 20.2632 56.1931 23.4622C56.1451 25.2232 56.5738 28.3761 56.663 29.4464C56.7902 28.6708 56.8689 26.9607 57.7938 25.3984C58.9616 23.4199 60.5465 21.6224 64.8816 21.6224C67.3179 21.6224 69.929 22.6006 71.4654 24.7389C72.6595 26.402 73.0646 29.0812 73.1169 30.5158C73.2336 29.5079 73.4256 26.5661 73.4481 25.7579C73.5801 24.3319 73.534 22.8953 73.3104 21.4813Z" fill="#20181B"/>
<path d="M60.4035 21.9714C60.4035 21.9714 59.7795 24.4427 60.2595 24.4672C61.1733 24.5008 62.0882 24.4586 62.9953 24.3419C63.2108 24.2268 63.3073 22.5185 63.4753 22.4989C63.6433 22.4792 63.5266 24.3136 63.8352 24.3419C64.6344 24.3895 65.436 24.3895 66.2351 24.3419C66.4996 24.2762 66.5413 22.5185 66.6522 22.4989C66.7631 22.4792 67.0031 24.3136 67.2694 24.3419C67.5358 24.3703 69.6266 24.4859 69.9146 24.4701C70.203 24.4543 69.4346 21.1857 69.4346 21.1857L63.9442 19.74L60.4035 21.9714Z" fill="#20181B"/>
<path d="M65.4888 36.875C65.7926 36.815 66.0839 36.7051 66.3522 36.5496C66.4737 36.4756 66.512 36.3168 66.4381 36.1953V36.1949C66.3623 36.0729 66.2025 36.0355 66.0801 36.1104C65.4201 36.4872 64.6171 36.5145 63.9327 36.1848C63.8074 36.1224 63.6553 36.1709 63.5895 36.2942V36.3C63.5247 36.4272 63.5751 36.5827 63.7023 36.6475C64.2533 36.9278 64.8849 37.0079 65.4888 36.875Z" fill="#FFA184"/>
<g opacity="0.5">
<path opacity="0.5" d="M67.7103 34.6967C66.1066 33.7859 64.1091 33.9469 62.6716 35.1027" stroke="#3E3538" stroke-width="0.9" stroke-linecap="round" stroke-linejoin="round"/>
</g>
<path d="M61.7272 29.9907C61.7387 30.5252 61.5214 30.9713 61.2454 30.9713C60.9693 30.9713 60.7371 30.5418 60.7327 30.0102C60.7284 29.4786 60.9394 29.0307 61.2145 29.0307C61.4896 29.0307 61.7219 29.4567 61.7272 29.9907Z" fill="#20181B"/>
<path d="M67.8013 29.9005C67.7902 30.4345 68.008 30.8806 68.2865 30.8806C68.565 30.8806 68.7948 30.4517 68.7977 29.9201C68.801 29.3884 68.5915 28.94 68.313 28.94C68.035 28.94 67.808 29.366 67.8013 29.9005Z" fill="#20181B"/>
<path d="M61.2674 28.176C61.2674 28.176 61.7776 27.8227 61.5482 27.4757C61.3188 27.1287 61.0125 27.4013 60.7644 27.6005C60.3948 27.9058 59.9652 28.1304 59.504 28.2605C59.168 28.3747 58.8147 28.4294 58.46 28.4222C58.46 28.4222 59.1032 29.53 61.2674 28.176Z" fill="#20181B"/>
<path d="M68.323 28.3943C68.323 28.3943 67.7542 28.1442 67.9131 27.7597C68.0724 27.3753 68.4247 27.5845 68.7079 27.7343C69.1293 27.9632 69.593 28.1024 70.0715 28.1432C70.4229 28.1912 70.78 28.1778 71.1275 28.1039C71.1275 28.1039 70.7123 29.3134 68.323 28.3943Z" fill="#20181B"/>
<path d="M68.8342 26.3746C70.348 26.3746 71.5753 27.6394 71.5753 29.1997C71.5753 30.7601 70.348 32.0249 68.8342 32.0249C67.3203 32.0249 66.093 30.7601 66.093 29.1997C66.093 27.6394 67.3203 26.3746 68.8342 26.3746Z" stroke="white" stroke-miterlimit="10"/>
<path d="M60.8997 26.3746C62.4136 26.3746 63.6409 27.6394 63.6409 29.1997C63.6409 30.7601 62.4136 32.0249 60.8997 32.0249C59.3859 32.0249 58.1586 30.7601 58.1586 29.1997C58.1586 27.6394 59.3859 26.3746 60.8997 26.3746Z" stroke="white" stroke-miterlimit="10"/>
<path d="M63.5545 28.8364C63.5545 28.8364 64.8365 27.6787 66.0945 28.7083" stroke="white" stroke-miterlimit="10"/>
<path d="M71.283 27.6931C71.283 27.6931 72.7022 26.1279 73.4476 25.7617" stroke="white" stroke-miterlimit="10" stroke-linecap="round"/>
<path d="M58.4476 27.6337C58.4476 27.6337 57.0969 26.2385 56.2138 25.9154" stroke="white" stroke-miterlimit="10" stroke-linecap="round"/>
<g opacity="0.6">
<path opacity="0.6" d="M51.8566 0.0457955C50.254 -0.146193 48.695 0.293461 47.1879 0.843028C45.9246 1.3038 44.6652 1.79097 43.4441 2.36742C41.1988 3.42623 38.799 4.9391 37.6048 7.36344C37.2732 7.94757 37.1613 8.63152 37.289 9.29101C37.4632 9.88569 37.8909 10.3729 38.4582 10.622C39.7248 11.2358 41.2454 10.9839 42.5298 10.5773C44.0115 10.0724 45.4485 9.44508 46.8265 8.7016C48.1973 7.99652 49.5292 7.21849 50.817 6.37038C52.0904 5.55827 53.3037 4.65544 54.4475 3.6691C55.0206 3.16753 55.5385 2.60692 55.9935 1.9964C56.2915 1.5889 56.7134 0.928943 56.1413 0.542566C55.8874 0.408174 55.6052 0.336658 55.3177 0.334258C54.9366 0.292501 54.5536 0.274262 54.1705 0.279062C53.441 0.290581 52.7143 0.374096 52.0006 0.527207C50.5247 0.865107 49.0987 1.39164 47.7576 2.09431C45.0952 3.38064 42.6565 5.08646 40.535 7.14649C39.4772 8.16883 38.5974 9.36012 37.9322 10.6719C37.409 11.7667 36.8028 13.5656 37.781 14.5712C38.2168 14.9724 38.7716 15.2206 39.3615 15.2777C40.057 15.377 40.7625 15.3862 41.4604 15.305C42.9243 15.1087 44.3446 14.6662 45.6611 13.9962C46.9921 13.3415 48.2765 12.5951 49.5047 11.7629C50.662 11.0155 51.7376 10.1487 52.7143 9.17677C53.1914 8.69296 53.6272 8.16979 54.0174 7.61303C54.2238 7.31688 54.4163 7.00874 54.5934 6.69196C54.8055 6.3987 54.9332 6.05264 54.962 5.6917C54.9284 4.9967 54.1374 4.84839 53.6344 4.79319C52.9087 4.73512 52.1791 4.82535 51.4899 5.05958C50.1354 5.50019 48.828 6.07472 47.5877 6.77452C46.3403 7.44936 45.1668 8.25427 44.0878 9.17437C43.5315 9.65098 43.0074 10.1641 42.5188 10.7103C42.0297 11.1826 41.6606 11.7648 41.4412 12.4084C41.0361 13.9707 42.7074 14.5448 43.8084 14.6571C45.2508 14.731 46.6849 14.4003 47.9492 13.7019C49.2201 13.0717 50.4191 12.3052 51.524 11.4149C52.6231 10.5596 53.5576 9.51179 54.2819 8.32242C54.4628 8.10788 54.5536 7.83093 54.5348 7.55063C54.4518 7.30536 54.2449 7.12249 53.991 7.07066C53.3426 6.92619 52.663 7.0481 52.1057 7.41C51.4731 7.79157 50.8808 8.23651 50.3389 8.73856C49.7658 9.23917 49.223 9.77434 48.7138 10.3397C48.2083 10.886 47.7581 11.4811 47.3698 12.1156C46.9743 12.7036 46.7199 13.3751 46.6268 14.0778C46.5419 15.6943 48.6518 15.4308 49.5326 15.0799C50.1945 14.791 50.8155 14.4161 51.3805 13.9659C51.9406 13.5551 52.4662 13.0986 52.9519 12.6018C53.4285 12.1132 53.8418 11.5666 54.1821 10.9747C54.4638 10.4756 54.854 9.76714 54.5857 9.17341C54.3246 8.59457 53.6493 8.57201 53.1458 8.6776C52.4426 8.82639 51.8009 9.18301 51.3027 9.7009C50.601 10.43 50.085 11.8718 50.913 12.7247C51.7731 13.6141 53.3335 13.1087 54.1528 12.4142C54.5603 12.0686 55.129 11.4624 55.0844 10.849C55.0052 10.382 54.5622 10.0671 54.0952 10.1458C54.0491 10.154 54.004 10.165 53.9598 10.1804C53.3901 10.3465 52.9697 10.8288 52.8837 11.4158C52.8137 11.9625 53.0061 12.5102 53.4026 12.8932C54.2584 13.7432 55.5577 13.3525 56.0535 12.2721C56.1456 12.0724 55.778 11.8555 55.6743 12.0801C55.4492 12.6182 54.9251 12.97 54.3419 12.9748C53.669 12.9028 53.1823 12.299 53.2543 11.6265C53.3133 11.076 53.7338 10.634 54.2805 10.5471C55.225 10.5029 54.1811 11.795 53.8965 12.0422C53.476 12.4161 52.9567 12.6604 52.4004 12.7449C51.8849 12.8154 51.2154 12.7737 50.9912 12.1689C50.5832 11.0698 51.5389 9.93081 52.3563 9.45515C52.7786 9.20941 53.4799 8.89359 53.9666 9.07934C54.6049 9.32412 53.9666 10.4012 53.7539 10.7684C53.129 11.7873 52.3145 12.6767 51.3541 13.388C50.3802 14.1512 49.1942 15.0199 47.9333 14.9192C47.6501 14.9316 47.3765 14.8198 47.1822 14.6139C47.0473 14.299 47.0559 13.9414 47.2057 13.6333C47.4164 13.0113 47.7168 12.4228 48.0979 11.8877C48.852 10.8418 49.7308 9.89193 50.7148 9.05918C51.1942 8.62144 51.7102 8.22595 52.2583 7.87749C52.5103 7.71862 52.7834 7.59479 53.069 7.50935C53.2279 7.46423 53.3925 7.44072 53.5581 7.43928C53.6579 7.43928 53.9637 7.43208 54.0342 7.52855C54.1782 7.7287 53.7463 8.26531 53.644 8.42418C53.4698 8.6896 53.2826 8.94543 53.0829 9.19213C52.7066 9.65722 52.2943 10.093 51.8504 10.4943C50.973 11.2742 50.0222 11.9673 49.0109 12.5635C47.9343 13.2623 46.7507 13.7797 45.5071 14.0955C44.8778 14.2429 44.2275 14.2755 43.5872 14.1915C42.9987 14.1704 42.442 13.9218 42.033 13.498C41.6179 12.922 42.0162 12.154 42.369 11.6741C42.7314 11.1989 43.1298 10.7525 43.5608 10.3378C44.4367 9.47339 45.3986 8.7016 46.4324 8.03396C47.4159 7.39752 48.4459 6.83595 49.5134 6.35406C50.6653 5.83041 51.9099 5.25349 53.1741 5.21797C53.5024 5.20213 53.8312 5.23957 54.1475 5.32836C54.2843 5.36964 54.4509 5.42004 54.4888 5.59619C54.4883 5.81169 54.4211 6.02192 54.2968 6.19759C54.0189 6.7294 53.6949 7.23529 53.3277 7.70998C52.6068 8.63344 51.7745 9.4638 50.8496 10.1823C49.9137 10.9104 48.9345 11.58 47.9165 12.1881C46.8179 12.8798 45.6679 13.485 44.4756 13.9986C43.3026 14.5107 42.0493 14.8145 40.7721 14.8952C39.8204 14.9355 38.0944 14.9643 37.8011 13.6789C37.7118 13.0204 37.7968 12.3494 38.0483 11.7341C38.259 11.1192 38.5417 10.5317 38.8911 9.9836C39.5708 8.93247 40.3771 7.9682 41.291 7.11242C43.1283 5.41476 45.186 3.97148 47.4082 2.82147C49.6871 1.59034 52.1959 0.606402 54.7791 0.717755C55.0897 0.723995 55.3993 0.753273 55.706 0.80511C56.1639 0.892945 55.8927 1.31724 55.7127 1.57306C55.333 2.10535 54.9006 2.59828 54.4221 3.0437C53.4808 3.90477 52.4753 4.6924 51.4141 5.39988C49.259 6.89739 46.9705 8.19283 44.5778 9.26989C43.3784 9.88041 42.0925 10.3013 40.7645 10.5178C39.7632 10.6296 37.961 10.55 37.6926 9.17725C37.4632 7.99652 38.4572 6.73804 39.1513 5.94752C39.876 5.13637 40.7112 4.43081 41.6323 3.85197C42.6316 3.22753 43.6803 2.68612 44.7689 2.23447C45.9011 1.74825 47.0492 1.28268 48.2112 0.890545C49.3852 0.444172 50.6384 0.242584 51.8936 0.29922C52.015 0.3093 51.9646 0.0592347 51.8595 0.0457955H51.8566Z" fill="#B5B5B5"/>
</g>
<path d="M6.78392 76.3205H125.68C126.399 76.3205 127.084 76.6305 127.559 77.1719L132.245 82.5174C132.57 82.8889 132.533 83.4533 132.161 83.7783C131.998 83.9213 131.789 84 131.573 84H0.893707C0.400296 84 0 83.5997 0 83.1063C0.00048337 82.8898 0.0791994 82.6801 0.221749 82.5174L4.90675 77.1719C5.38096 76.631 6.06492 76.3209 6.78392 76.3205Z" fill="#EEEEEE"/>
<g opacity="0.12">
<path opacity="0.12" d="M49.032 76.7284L81.4723 76.3205L95.0305 84H36.474L49.032 76.7284Z" fill="black"/>
</g>
<path d="M50.7608 56.6411H81.7046C82.9674 56.6411 83.9916 57.6654 83.9916 58.9282V77.8727C83.9916 79.1355 82.9674 80.1597 81.7046 80.1597H50.7608C49.4975 80.1597 48.4738 79.1355 48.4738 77.8727V58.9282C48.4738 57.6654 49.4975 56.6411 50.7608 56.6411Z" fill="#C1C1C1"/>
<g opacity="0.4">
<path opacity="0.4" d="M66.2332 66.2411C67.5589 66.2411 68.633 67.3152 68.633 68.6409C68.633 69.9666 67.5589 71.0408 66.2332 71.0408C64.908 71.0408 63.8333 69.9666 63.8333 68.6409C63.8333 67.3152 64.908 66.2411 66.2332 66.2411Z" fill="white"/>
</g>
</svg>
