<svg width="350" height="27" viewBox="0 0 350 27" fill="none" xmlns="http://www.w3.org/2000/svg">
<path d="M175.957 15.6387C175.957 17.3835 175.518 18.7474 174.639 19.7305C173.76 20.707 172.546 21.1953 170.996 21.1953C170.039 21.1953 169.189 20.9707 168.447 20.5215C167.705 20.0723 167.132 19.4277 166.729 18.5879C166.325 17.748 166.123 16.765 166.123 15.6387C166.123 13.8939 166.559 12.5365 167.432 11.5664C168.304 10.5898 169.515 10.1016 171.064 10.1016C172.562 10.1016 173.75 10.5996 174.629 11.5957C175.514 12.5918 175.957 13.9395 175.957 15.6387ZM167.803 15.6387C167.803 17.0059 168.076 18.0475 168.623 18.7637C169.17 19.4798 169.974 19.8379 171.035 19.8379C172.096 19.8379 172.9 19.4831 173.447 18.7734C174.001 18.0573 174.277 17.0124 174.277 15.6387C174.277 14.278 174.001 13.2461 173.447 12.543C172.9 11.8333 172.09 11.4785 171.016 11.4785C169.954 11.4785 169.154 11.8268 168.613 12.5234C168.073 13.2201 167.803 14.2585 167.803 15.6387ZM183.691 10.1016C184.167 10.1016 184.593 10.1406 184.971 10.2188L184.746 11.7227C184.303 11.625 183.913 11.5762 183.574 11.5762C182.708 11.5762 181.966 11.9277 181.348 12.6309C180.736 13.334 180.43 14.2096 180.43 15.2578V21H178.809V10.2969H180.146L180.332 12.2793H180.41C180.807 11.5827 181.286 11.0456 181.846 10.668C182.406 10.2904 183.021 10.1016 183.691 10.1016Z" fill="black"/>
<line x1="4.37114e-08" y1="15.5" x2="147" y2="15.5" stroke="black"/>
<line x1="201" y1="15.5" x2="350" y2="15.5" stroke="black"/>
</svg>
