<svg width="40" height="40" viewBox="0 0 40 40" fill="none" xmlns="http://www.w3.org/2000/svg">
<path d="M19.8304 0.0112915C9.70043 0.0112915 10.3329 4.42149 10.3329 4.42149L10.3442 8.99058H20.0111V10.3623H6.50465C6.50465 10.3623 0.0224609 9.62431 0.0224609 19.8855C0.0224609 30.147 5.68027 29.7831 5.68027 29.7831H9.05684V25.0213C9.05684 25.0213 8.8748 19.3413 14.6243 19.3413H24.2121C24.2121 19.3413 29.5989 19.4287 29.5989 14.1148V5.32862C29.5989 5.32862 30.417 0.0112915 19.8304 0.0112915ZM14.5001 3.08392C14.7286 3.08371 14.9548 3.12873 15.1659 3.2164C15.377 3.30406 15.5688 3.43265 15.7303 3.59482C15.8918 3.75698 16.0199 3.94952 16.1072 4.16144C16.1945 4.37335 16.2394 4.60047 16.2392 4.8298C16.2394 5.05913 16.1945 5.28625 16.1072 5.49817C16.0199 5.71008 15.8918 5.90263 15.7303 6.06479C15.5688 6.22695 15.377 6.35554 15.1659 6.44321C14.9548 6.53087 14.7286 6.57589 14.5001 6.57568C14.2717 6.57589 14.0454 6.53087 13.8344 6.44321C13.6233 6.35554 13.4315 6.22695 13.27 6.06479C13.1084 5.90263 12.9803 5.71008 12.893 5.49817C12.8057 5.28625 12.7608 5.05913 12.7611 4.8298C12.7608 4.60047 12.8057 4.37335 12.893 4.16144C12.9803 3.94952 13.1084 3.75698 13.27 3.59482C13.4315 3.43265 13.6233 3.30406 13.8344 3.2164C14.0454 3.12873 14.2717 3.08371 14.5001 3.08392Z" fill="url(#paint0_linear_242_4332)"/>
<path d="M20.1182 39.8629C30.2482 39.8629 29.6157 35.4527 29.6157 35.4527L29.6045 30.8838H19.9374V29.512H33.4438C33.4438 29.512 39.926 30.25 39.926 19.9885C39.926 9.72721 34.2682 10.0911 34.2682 10.0911H30.8916V14.8527C30.8916 14.8527 31.0737 20.5327 25.3241 20.5327H15.7363C15.7363 20.5327 10.3496 20.4453 10.3496 25.7594V34.5457C10.3496 34.5457 9.53165 39.8629 20.1181 39.8629H20.1182ZM25.4485 36.7906C25.2201 36.7908 24.9939 36.7458 24.7828 36.6581C24.5717 36.5704 24.3799 36.4418 24.2184 36.2797C24.0568 36.1175 23.9287 35.925 23.8414 35.7131C23.7541 35.5012 23.7093 35.274 23.7095 35.0447C23.7092 34.8154 23.7541 34.5882 23.8414 34.3763C23.9287 34.1644 24.0568 33.9718 24.2183 33.8096C24.3798 33.6474 24.5716 33.5188 24.7827 33.4312C24.9938 33.3435 25.2201 33.2985 25.4485 33.2987C25.677 33.2985 25.9032 33.3435 26.1143 33.4311C26.3254 33.5188 26.5172 33.6474 26.6787 33.8096C26.8402 33.9717 26.9683 34.1643 27.0556 34.3762C27.1429 34.5881 27.1878 34.8152 27.1876 35.0445C27.1878 35.2739 27.1429 35.501 27.0556 35.7129C26.9683 35.9248 26.8402 36.1174 26.6787 36.2795C26.5172 36.4417 26.3254 36.5703 26.1143 36.6579C25.9032 36.7456 25.677 36.7906 25.4485 36.7904V36.7906Z" fill="url(#paint1_linear_242_4332)"/>
<defs>
<linearGradient id="paint0_linear_242_4332" x1="3.85717" y1="3.59571" x2="23.7087" y2="23.1724" gradientUnits="userSpaceOnUse">
<stop stop-color="#387EB8"/>
<stop offset="1" stop-color="#366994"/>
</linearGradient>
<linearGradient id="paint1_linear_242_4332" x1="15.9951" y1="16.2166" x2="37.3096" y2="36.2871" gradientUnits="userSpaceOnUse">
<stop stop-color="#FFE052"/>
<stop offset="1" stop-color="#FFC331"/>
</linearGradient>
</defs>
</svg>
