<svg width="56" height="56" viewBox="0 0 56 56" fill="none" xmlns="http://www.w3.org/2000/svg">
<g clip-path="url(#clip0_242_4336)">
<path d="M41.44 47.6H3.36C2.46887 47.6 1.61424 47.246 0.984121 46.6159C0.353999 45.9857 0 45.1311 0 44.24L0 3.35997C0 2.46885 0.353999 1.61422 0.984121 0.984097C1.61424 0.353977 2.46887 -2.28882e-05 3.36 -2.28882e-05H41.44C42.3311 -2.28882e-05 43.1857 0.353977 43.8159 0.984097C44.446 1.61422 44.8 2.46885 44.8 3.35997V44.24C44.8 45.1311 44.446 45.9857 43.8159 46.6159C43.1857 47.246 42.3311 47.6 41.44 47.6Z" fill="#35495E"/>
<path opacity="0.2" d="M42.5599 47.6H30.2399C28.6935 47.6 27.4399 46.3464 27.4399 44.8V7.83997C27.4399 6.29358 28.6935 5.03997 30.2399 5.03997H42.5599C44.1063 5.03997 45.3599 6.29358 45.3599 7.83997V44.8C45.3599 46.3464 44.1063 47.6 42.5599 47.6Z" fill="black"/>
<path d="M42.5602 3.92002C42.5602 3.47446 42.3832 3.04714 42.0682 2.73208C41.7531 2.41702 41.3258 2.24002 40.8802 2.24002H3.92023C3.47467 2.24002 3.04736 2.41702 2.73229 2.73208C2.41723 3.04714 2.24023 3.47446 2.24023 3.92002V38.08H42.5602V3.92002Z" fill="white"/>
<path d="M5.03986 40.88C5.9677 40.88 6.71986 41.6322 6.71986 42.56C6.71986 43.4878 5.9677 44.24 5.03986 44.24C4.11202 44.24 3.35986 43.4878 3.35986 42.56C3.35986 41.6322 4.11202 40.88 5.03986 40.88Z" fill="#D15527"/>
<path d="M9.51984 40.88C10.4477 40.88 11.1998 41.6322 11.1998 42.56C11.1998 43.4878 10.4477 44.24 9.51984 44.24C8.59201 44.24 7.83984 43.4878 7.83984 42.56C7.83984 41.6322 8.59201 40.88 9.51984 40.88Z" fill="#F19B2D"/>
<path d="M13.9998 40.88C14.9277 40.88 15.6798 41.6322 15.6798 42.56C15.6798 43.4878 14.9277 44.24 13.9998 44.24C13.072 44.24 12.3198 43.4878 12.3198 42.56C12.3198 41.6322 13.072 40.88 13.9998 40.88Z" fill="#53BB72"/>
<path fill-rule="evenodd" clip-rule="evenodd" d="M4.47998 35.84H40.32V4.48003H4.47998V35.84Z" fill="#14A085"/>
<path fill-rule="evenodd" clip-rule="evenodd" d="M19.04 35.84H40.32V4.48003H19.04V35.84Z" fill="#26B99A"/>
<path fill-rule="evenodd" clip-rule="evenodd" d="M52.6401 56H32.4801C31.589 56 30.7344 55.646 30.1042 55.0159C29.4741 54.3858 29.1201 53.5311 29.1201 52.64V10.0794C29.1204 9.18851 29.4745 8.33416 30.1046 7.70428C30.7347 7.07441 31.5892 6.72056 32.4801 6.72056H52.6401C53.5311 6.72056 54.3855 7.07441 55.0156 7.70428C55.6457 8.33416 55.9998 9.18851 56.0001 10.0794V52.64C56.0001 53.5311 55.6461 54.3858 55.016 55.0159C54.3859 55.646 53.5312 56 52.6401 56V56ZM53.7601 14.56H31.3601V48.16H53.7601V14.56Z" fill="#35495E"/>
<path fill-rule="evenodd" clip-rule="evenodd" d="M31.3604 48.16H53.7603V14.56H31.3604V48.16Z" fill="white"/>
<path fill-rule="evenodd" clip-rule="evenodd" d="M33.04 46.48H52.08V16.24H33.04V46.48Z" fill="#14A085"/>
<path fill-rule="evenodd" clip-rule="evenodd" d="M33.04 31.36H52.08V16.24H33.04V31.36Z" fill="#26B99A"/>
<path fill-rule="evenodd" clip-rule="evenodd" d="M38.9201 52.64H45.6401C45.8629 52.64 46.0765 52.5515 46.234 52.394C46.3916 52.2365 46.4801 52.0228 46.4801 51.8C46.4801 51.5772 46.3916 51.3636 46.234 51.206C46.0765 51.0485 45.8629 50.96 45.6401 50.96H38.9201C38.6973 50.96 38.4836 51.0485 38.3261 51.206C38.1686 51.3636 38.0801 51.5772 38.0801 51.8C38.0801 52.0228 38.1686 52.2365 38.3261 52.394C38.4836 52.5515 38.6973 52.64 38.9201 52.64ZM42.5601 12.3195C43.0055 12.3195 43.4327 12.1425 43.7476 11.8276C44.0626 11.5126 44.2395 11.0854 44.2395 10.64C44.2395 10.1946 44.0626 9.76743 43.7476 9.45248C43.4327 9.13752 43.0055 8.96058 42.5601 8.96058C42.3359 8.95479 42.1128 8.99395 41.904 9.07574C41.6951 9.15754 41.5048 9.28032 41.3442 9.43684C41.1836 9.59336 41.0559 9.78046 40.9688 9.98711C40.8816 10.1937 40.8367 10.4157 40.8367 10.64C40.8367 10.8643 40.8816 11.0863 40.9688 11.2929C41.0559 11.4996 41.1836 11.6867 41.3442 11.8432C41.5048 11.9997 41.6951 12.1225 41.904 12.2043C42.1128 12.2861 42.3359 12.3252 42.5601 12.3195Z" fill="#2C3D4F"/>
</g>
<defs>
<clipPath id="clip0_242_4336">
<rect width="56" height="56" fill="white" transform="matrix(1 0 0 -1 0 56)"/>
</clipPath>
</defs>
</svg>
