<svg width="41" height="41" viewBox="0 0 41 41" fill="none" xmlns="http://www.w3.org/2000/svg">
<path fill-rule="evenodd" clip-rule="evenodd" d="M40.9077 1.75787C41.0009 1.52503 41.0237 1.26996 40.9733 1.02427C40.9229 0.77859 40.8015 0.5531 40.6242 0.375758C40.4469 0.198417 40.2214 0.077022 39.9757 0.0266241C39.73 -0.0237737 39.4749 -0.00095849 39.2421 0.0922413L1.96541 15.0034H1.96284L0.804593 15.4647C0.585218 15.5522 0.3943 15.6986 0.252927 15.8878C0.111554 16.077 0.0252293 16.3016 0.00348762 16.5368C-0.018254 16.772 0.0254339 17.0086 0.129725 17.2205C0.234017 17.4324 0.394853 17.6114 0.594468 17.7376L1.64509 18.4039L1.64766 18.409L14.4473 26.5526L22.591 39.3523L22.5961 39.3574L23.2623 40.4081C23.389 40.6069 23.568 40.7669 23.7798 40.8706C23.9916 40.9742 24.2278 41.0174 24.4625 40.9954C24.6972 40.9734 24.9213 40.8871 25.1102 40.7459C25.299 40.6048 25.4452 40.4143 25.5327 40.1954L40.9077 1.75787ZM36.2107 6.60099L37.4176 3.58237L34.399 4.7893L15.1956 23.9927L16.0617 24.5436C16.2207 24.6446 16.3554 24.7793 16.4563 24.9382L17.0073 25.8044L36.2107 6.60099Z" fill="white"/>
</svg>
