<svg width="132" height="31" viewBox="0 0 132 31" fill="none" xmlns="http://www.w3.org/2000/svg">
<path fill-rule="evenodd" clip-rule="evenodd" d="M18.7012 11.4274L15.2308 0L11.7603 11.4274H0L9.51488 18.8252L5.98352 30.4615L15.2308 23.2704L24.478 30.4615L20.9467 18.8252L30.4615 11.4274H18.7012Z" fill="#FFD64E"/>
<path fill-rule="evenodd" clip-rule="evenodd" d="M52.5474 11.4274L49.077 0L45.6065 11.4274H33.8462L43.3611 18.8252L39.8297 30.4615L49.077 23.2704L58.3242 30.4615L54.7929 18.8252L64.3077 11.4274H52.5474Z" fill="#FFD64E"/>
<path fill-rule="evenodd" clip-rule="evenodd" d="M86.3935 11.4274L82.923 0L79.4526 11.4274H67.6923L77.2071 18.8252L73.6758 30.4615L82.923 23.2704L92.1703 30.4615L88.6389 18.8252L98.1538 11.4274H86.3935Z" fill="#FFD64E"/>
<path fill-rule="evenodd" clip-rule="evenodd" d="M120.24 11.4274L116.769 0L113.299 11.4274H101.538L111.053 18.8252L107.522 30.4615L116.769 23.2704L126.016 30.4615L122.485 18.8252L132 11.4274H120.24Z" fill="#FFD64E"/>
</svg>
