<svg width="118" height="28" viewBox="0 0 118 28" fill="none" xmlns="http://www.w3.org/2000/svg">
<path fill-rule="evenodd" clip-rule="evenodd" d="M16.7913 10.941L14 1.75L11.2088 10.941H1.75L9.40275 16.891L6.5625 26.25L14 20.4662L21.4375 26.25L18.5972 16.891L26.25 10.941H16.7913Z" fill="#FFD64E"/>
<path fill-rule="evenodd" clip-rule="evenodd" d="M46.7913 10.941L44 1.75L41.2088 10.941H31.75L39.4028 16.891L36.5625 26.25L44 20.4662L51.4375 26.25L48.5972 16.891L56.25 10.941H46.7913Z" fill="#FFD64E"/>
<path fill-rule="evenodd" clip-rule="evenodd" d="M76.7913 10.941L74 1.75L71.2088 10.941H61.75L69.4028 16.891L66.5625 26.25L74 20.4662L81.4375 26.25L78.5972 16.891L86.25 10.941H76.7913Z" fill="#FFD64E"/>
<path fill-rule="evenodd" clip-rule="evenodd" d="M106.791 10.941L104 1.75L101.209 10.941H91.75L99.4028 16.891L96.5625 26.25L104 20.4662L111.438 26.25L108.597 16.891L116.25 10.941H106.791Z" fill="#FFD64E"/>
</svg>
