<svg width="33" height="33" viewBox="0 0 33 33" fill="none" xmlns="http://www.w3.org/2000/svg">
<path d="M16.5 0C7.55535 0 0 7.55535 0 16.5C0 25.4446 7.55535 33 16.5 33C25.4446 33 33 25.4446 33 16.5C33 7.55535 25.4446 0 16.5 0ZM16.5 8.25C19.3496 8.25 21.45 10.3488 21.45 13.2C21.45 16.0512 19.3496 18.15 16.5 18.15C13.6521 18.15 11.55 16.0512 11.55 13.2C11.55 10.3488 13.6521 8.25 16.5 8.25ZM8.0751 24.3738C9.55515 22.1958 12.0236 20.7438 14.85 20.7438H18.15C20.9781 20.7438 23.4449 22.1958 24.9249 24.3738C22.8162 26.631 19.8247 28.05 16.5 28.05C13.1753 28.05 10.1838 26.631 8.0751 24.3738Z" fill="white"/>
</svg>
